{
 "cells": [
  {
   "cell_type": "code",
   "execution_count": 26,
   "metadata": {},
   "outputs": [],
   "source": [
    "import pandas as pd\n",
    "from mido import Message, MidiFile, MidiTrack, MetaMessage\n",
    "import pygame"
   ]
  },
  {
   "cell_type": "code",
   "execution_count": 27,
   "metadata": {},
   "outputs": [],
   "source": [
    "df = pd.read_csv('summarised_offspring_scaffold_load.csv')\n",
    "dfsum=df.sum(axis=1)"
   ]
  },
  {
   "cell_type": "code",
   "execution_count": 28,
   "metadata": {},
   "outputs": [],
   "source": [
    "midIn = MidiFile('FurEliseOneStaveV2.mid')"
   ]
  },
  {
   "cell_type": "code",
   "execution_count": 29,
   "metadata": {},
   "outputs": [
    {
     "name": "stdout",
     "output_type": "stream",
     "text": [
      "Track 0: Piano\u0000\n",
      "<meta message track_name name='Piano\\x00' time=0>\n",
      "<meta message time_signature numerator=1 denominator=8 clocks_per_click=24 notated_32nd_notes_per_beat=8 time=0>\n",
      "<meta message key_signature key='C' time=0>\n",
      "<meta message set_tempo tempo=545455 time=0>\n",
      "control_change channel=0 control=121 value=0 time=0\n",
      "program_change channel=0 program=0 time=0\n",
      "control_change channel=0 control=7 value=100 time=0\n",
      "control_change channel=0 control=10 value=64 time=0\n",
      "control_change channel=0 control=91 value=0 time=0\n",
      "control_change channel=0 control=93 value=0 time=0\n",
      "<meta message midi_port port=0 time=0>\n",
      "note_on channel=0 note=76 velocity=80 time=0\n",
      "note_on channel=0 note=76 velocity=0 time=113\n",
      "note_on channel=0 note=75 velocity=80 time=7\n",
      "note_on channel=0 note=75 velocity=0 time=113\n",
      "<meta message time_signature numerator=3 denominator=8 clocks_per_click=24 notated_32nd_notes_per_beat=8 time=7>\n",
      "note_on channel=0 note=76 velocity=80 time=0\n",
      "note_on channel=0 note=76 velocity=0 time=113\n",
      "note_on channel=0 note=75 velocity=80 time=7\n",
      "note_on channel=0 note=75 velocity=0 time=113\n",
      "note_on channel=0 note=76 velocity=80 time=7\n",
      "note_on channel=0 note=76 velocity=0 time=113\n",
      "note_on channel=0 note=71 velocity=80 time=7\n",
      "note_on channel=0 note=71 velocity=0 time=113\n",
      "note_on channel=0 note=74 velocity=80 time=7\n",
      "note_on channel=0 note=74 velocity=0 time=113\n",
      "note_on channel=0 note=72 velocity=80 time=7\n",
      "note_on channel=0 note=72 velocity=0 time=113\n",
      "note_on channel=0 note=45 velocity=80 time=7\n",
      "note_on channel=0 note=69 velocity=80 time=0\n",
      "control_change channel=0 control=64 value=127 time=2\n",
      "note_on channel=0 note=45 velocity=0 time=111\n",
      "note_on channel=0 note=52 velocity=80 time=7\n",
      "note_on channel=0 note=69 velocity=0 time=107\n",
      "note_on channel=0 note=52 velocity=0 time=6\n",
      "note_on channel=0 note=57 velocity=80 time=7\n",
      "note_on channel=0 note=57 velocity=0 time=113\n",
      "note_on channel=0 note=60 velocity=80 time=7\n",
      "note_on channel=0 note=60 velocity=0 time=113\n",
      "note_on channel=0 note=64 velocity=80 time=7\n",
      "note_on channel=0 note=64 velocity=0 time=113\n",
      "note_on channel=0 note=69 velocity=80 time=7\n",
      "note_on channel=0 note=69 velocity=0 time=113\n",
      "note_on channel=0 note=40 velocity=80 time=7\n",
      "note_on channel=0 note=71 velocity=80 time=0\n",
      "control_change channel=0 control=64 value=0 time=1\n",
      "control_change channel=0 control=64 value=127 time=1\n",
      "note_on channel=0 note=40 velocity=0 time=111\n",
      "note_on channel=0 note=52 velocity=80 time=7\n",
      "note_on channel=0 note=71 velocity=0 time=107\n",
      "note_on channel=0 note=52 velocity=0 time=6\n",
      "note_on channel=0 note=56 velocity=80 time=7\n",
      "note_on channel=0 note=56 velocity=0 time=113\n",
      "note_on channel=0 note=64 velocity=80 time=7\n",
      "note_on channel=0 note=64 velocity=0 time=113\n",
      "note_on channel=0 note=68 velocity=80 time=7\n",
      "note_on channel=0 note=68 velocity=0 time=113\n",
      "note_on channel=0 note=71 velocity=80 time=7\n",
      "note_on channel=0 note=71 velocity=0 time=113\n",
      "note_on channel=0 note=45 velocity=80 time=7\n",
      "note_on channel=0 note=72 velocity=80 time=0\n",
      "control_change channel=0 control=64 value=0 time=1\n",
      "control_change channel=0 control=64 value=127 time=1\n",
      "note_on channel=0 note=45 velocity=0 time=111\n",
      "note_on channel=0 note=52 velocity=80 time=7\n",
      "note_on channel=0 note=72 velocity=0 time=107\n",
      "note_on channel=0 note=52 velocity=0 time=6\n",
      "note_on channel=0 note=57 velocity=80 time=7\n",
      "note_on channel=0 note=57 velocity=0 time=113\n",
      "note_on channel=0 note=64 velocity=80 time=7\n",
      "note_on channel=0 note=64 velocity=0 time=113\n",
      "note_on channel=0 note=76 velocity=80 time=7\n",
      "note_on channel=0 note=76 velocity=0 time=113\n",
      "note_on channel=0 note=75 velocity=80 time=7\n",
      "note_on channel=0 note=75 velocity=0 time=113\n",
      "note_on channel=0 note=76 velocity=80 time=7\n",
      "control_change channel=0 control=64 value=0 time=1\n",
      "note_on channel=0 note=76 velocity=0 time=112\n",
      "note_on channel=0 note=75 velocity=80 time=7\n",
      "note_on channel=0 note=75 velocity=0 time=113\n",
      "note_on channel=0 note=76 velocity=80 time=7\n",
      "note_on channel=0 note=76 velocity=0 time=113\n",
      "note_on channel=0 note=71 velocity=80 time=7\n",
      "note_on channel=0 note=71 velocity=0 time=113\n",
      "note_on channel=0 note=74 velocity=80 time=7\n",
      "note_on channel=0 note=74 velocity=0 time=113\n",
      "note_on channel=0 note=72 velocity=80 time=7\n",
      "note_on channel=0 note=72 velocity=0 time=113\n",
      "note_on channel=0 note=45 velocity=80 time=7\n",
      "note_on channel=0 note=69 velocity=80 time=0\n",
      "control_change channel=0 control=64 value=127 time=2\n",
      "note_on channel=0 note=45 velocity=0 time=111\n",
      "note_on channel=0 note=52 velocity=80 time=7\n",
      "note_on channel=0 note=69 velocity=0 time=107\n",
      "note_on channel=0 note=52 velocity=0 time=6\n",
      "note_on channel=0 note=57 velocity=80 time=7\n",
      "note_on channel=0 note=57 velocity=0 time=113\n",
      "note_on channel=0 note=60 velocity=80 time=7\n",
      "note_on channel=0 note=60 velocity=0 time=113\n",
      "note_on channel=0 note=64 velocity=80 time=7\n",
      "note_on channel=0 note=64 velocity=0 time=113\n",
      "note_on channel=0 note=69 velocity=80 time=7\n",
      "note_on channel=0 note=69 velocity=0 time=113\n",
      "note_on channel=0 note=40 velocity=80 time=7\n",
      "note_on channel=0 note=71 velocity=80 time=0\n",
      "control_change channel=0 control=64 value=0 time=1\n",
      "control_change channel=0 control=64 value=127 time=1\n",
      "note_on channel=0 note=40 velocity=0 time=111\n",
      "note_on channel=0 note=52 velocity=80 time=7\n",
      "note_on channel=0 note=71 velocity=0 time=107\n",
      "note_on channel=0 note=52 velocity=0 time=6\n",
      "note_on channel=0 note=56 velocity=80 time=7\n",
      "note_on channel=0 note=56 velocity=0 time=113\n",
      "note_on channel=0 note=62 velocity=80 time=7\n",
      "note_on channel=0 note=62 velocity=0 time=113\n",
      "note_on channel=0 note=72 velocity=80 time=7\n",
      "note_on channel=0 note=72 velocity=0 time=113\n",
      "note_on channel=0 note=71 velocity=80 time=7\n",
      "note_on channel=0 note=71 velocity=0 time=113\n",
      "note_on channel=0 note=45 velocity=80 time=7\n",
      "note_on channel=0 note=69 velocity=80 time=0\n",
      "control_change channel=0 control=64 value=0 time=1\n",
      "note_on channel=0 note=45 velocity=0 time=112\n",
      "note_on channel=0 note=52 velocity=80 time=7\n",
      "note_on channel=0 note=69 velocity=0 time=107\n",
      "note_on channel=0 note=52 velocity=0 time=6\n",
      "note_on channel=0 note=57 velocity=80 time=7\n",
      "note_on channel=0 note=57 velocity=0 time=113\n",
      "note_on channel=0 note=71 velocity=80 time=7\n",
      "note_on channel=0 note=71 velocity=0 time=113\n",
      "note_on channel=0 note=72 velocity=80 time=7\n",
      "note_on channel=0 note=72 velocity=0 time=113\n",
      "note_on channel=0 note=74 velocity=80 time=7\n",
      "note_on channel=0 note=74 velocity=0 time=113\n",
      "note_on channel=0 note=48 velocity=80 time=7\n",
      "note_on channel=0 note=76 velocity=80 time=0\n",
      "control_change channel=0 control=64 value=127 time=2\n",
      "note_on channel=0 note=48 velocity=0 time=111\n",
      "note_on channel=0 note=55 velocity=80 time=7\n",
      "note_on channel=0 note=55 velocity=0 time=113\n",
      "note_on channel=0 note=60 velocity=80 time=7\n",
      "note_on channel=0 note=76 velocity=0 time=101\n",
      "note_on channel=0 note=60 velocity=0 time=12\n",
      "note_on channel=0 note=67 velocity=80 time=7\n",
      "note_on channel=0 note=67 velocity=0 time=113\n",
      "note_on channel=0 note=77 velocity=80 time=7\n",
      "note_on channel=0 note=77 velocity=0 time=113\n",
      "note_on channel=0 note=76 velocity=80 time=7\n",
      "note_on channel=0 note=76 velocity=0 time=113\n",
      "note_on channel=0 note=43 velocity=80 time=7\n",
      "note_on channel=0 note=74 velocity=80 time=0\n",
      "control_change channel=0 control=64 value=0 time=1\n",
      "control_change channel=0 control=64 value=127 time=1\n",
      "note_on channel=0 note=43 velocity=0 time=111\n",
      "note_on channel=0 note=55 velocity=80 time=7\n",
      "note_on channel=0 note=55 velocity=0 time=113\n",
      "note_on channel=0 note=59 velocity=80 time=7\n",
      "note_on channel=0 note=74 velocity=0 time=101\n",
      "note_on channel=0 note=59 velocity=0 time=12\n",
      "note_on channel=0 note=65 velocity=80 time=7\n",
      "note_on channel=0 note=65 velocity=0 time=113\n",
      "note_on channel=0 note=76 velocity=80 time=7\n",
      "note_on channel=0 note=76 velocity=0 time=113\n",
      "note_on channel=0 note=74 velocity=80 time=7\n",
      "note_on channel=0 note=74 velocity=0 time=113\n",
      "note_on channel=0 note=45 velocity=80 time=7\n",
      "note_on channel=0 note=72 velocity=80 time=0\n",
      "control_change channel=0 control=64 value=0 time=1\n",
      "control_change channel=0 control=64 value=127 time=1\n",
      "note_on channel=0 note=45 velocity=0 time=111\n",
      "note_on channel=0 note=52 velocity=80 time=7\n",
      "note_on channel=0 note=52 velocity=0 time=113\n",
      "note_on channel=0 note=57 velocity=80 time=7\n",
      "note_on channel=0 note=72 velocity=0 time=101\n",
      "note_on channel=0 note=57 velocity=0 time=12\n",
      "note_on channel=0 note=64 velocity=80 time=7\n",
      "note_on channel=0 note=64 velocity=0 time=113\n",
      "note_on channel=0 note=74 velocity=80 time=7\n",
      "note_on channel=0 note=74 velocity=0 time=113\n",
      "note_on channel=0 note=72 velocity=80 time=7\n",
      "note_on channel=0 note=72 velocity=0 time=113\n",
      "note_on channel=0 note=40 velocity=80 time=7\n",
      "note_on channel=0 note=71 velocity=80 time=0\n",
      "note_on channel=0 note=40 velocity=0 time=113\n",
      "note_on channel=0 note=52 velocity=80 time=7\n",
      "note_on channel=0 note=71 velocity=0 time=107\n",
      "note_on channel=0 note=52 velocity=0 time=6\n",
      "note_on channel=0 note=64 velocity=80 time=7\n",
      "note_on channel=0 note=64 velocity=0 time=113\n",
      "note_on channel=0 note=64 velocity=80 time=7\n",
      "note_on channel=0 note=64 velocity=0 time=113\n",
      "note_on channel=0 note=76 velocity=80 time=7\n",
      "note_on channel=0 note=76 velocity=0 time=113\n",
      "note_on channel=0 note=64 velocity=80 time=7\n",
      "note_on channel=0 note=64 velocity=0 time=113\n",
      "note_on channel=0 note=76 velocity=80 time=7\n",
      "note_on channel=0 note=76 velocity=0 time=113\n",
      "note_on channel=0 note=76 velocity=80 time=7\n",
      "note_on channel=0 note=76 velocity=0 time=113\n",
      "note_on channel=0 note=88 velocity=80 time=7\n",
      "note_on channel=0 note=88 velocity=0 time=113\n",
      "note_on channel=0 note=75 velocity=80 time=7\n",
      "note_on channel=0 note=75 velocity=0 time=113\n",
      "note_on channel=0 note=76 velocity=80 time=7\n",
      "note_on channel=0 note=76 velocity=0 time=113\n",
      "note_on channel=0 note=75 velocity=80 time=7\n",
      "note_on channel=0 note=75 velocity=0 time=113\n",
      "note_on channel=0 note=76 velocity=80 time=7\n",
      "control_change channel=0 control=64 value=0 time=1\n",
      "note_on channel=0 note=75 velocity=80 time=119\n",
      "note_on channel=0 note=76 velocity=0 time=107\n",
      "note_on channel=0 note=75 velocity=0 time=6\n",
      "note_on channel=0 note=76 velocity=80 time=7\n",
      "note_on channel=0 note=76 velocity=0 time=113\n",
      "note_on channel=0 note=75 velocity=80 time=7\n",
      "note_on channel=0 note=75 velocity=0 time=113\n",
      "note_on channel=0 note=76 velocity=80 time=7\n",
      "note_on channel=0 note=76 velocity=0 time=113\n",
      "note_on channel=0 note=75 velocity=80 time=7\n",
      "note_on channel=0 note=75 velocity=0 time=113\n",
      "note_on channel=0 note=76 velocity=80 time=7\n",
      "note_on channel=0 note=76 velocity=0 time=113\n",
      "note_on channel=0 note=75 velocity=80 time=7\n",
      "note_on channel=0 note=75 velocity=0 time=113\n",
      "note_on channel=0 note=76 velocity=80 time=7\n",
      "note_on channel=0 note=76 velocity=0 time=113\n",
      "note_on channel=0 note=71 velocity=80 time=7\n",
      "note_on channel=0 note=71 velocity=0 time=113\n",
      "note_on channel=0 note=74 velocity=80 time=7\n",
      "note_on channel=0 note=74 velocity=0 time=113\n",
      "note_on channel=0 note=72 velocity=80 time=7\n",
      "note_on channel=0 note=72 velocity=0 time=113\n",
      "<meta message time_signature numerator=1 denominator=8 clocks_per_click=24 notated_32nd_notes_per_beat=8 time=7>\n",
      "note_on channel=0 note=33 velocity=80 time=0\n",
      "note_on channel=0 note=45 velocity=80 time=0\n",
      "note_on channel=0 note=69 velocity=80 time=0\n",
      "note_on channel=0 note=33 velocity=0 time=227\n",
      "note_on channel=0 note=45 velocity=0 time=0\n",
      "note_on channel=0 note=69 velocity=0 time=0\n",
      "<meta message end_of_track time=1>\n"
     ]
    }
   ],
   "source": [
    "MessagesInput = []\n",
    "for i, track in enumerate(midIn.tracks):\n",
    "    print('Track {}: {}'.format(i, track.name))\n",
    "    for msg in track:\n",
    "        print(str(msg))\n",
    "        MessagesInput.append(str(msg))"
   ]
  },
  {
   "cell_type": "code",
   "execution_count": 30,
   "metadata": {},
   "outputs": [
    {
     "name": "stdout",
     "output_type": "stream",
     "text": [
      "<meta message track_name name='Piano\\x00' time=0>\n",
      "<meta message time_signature numerator=1 denominator=8 clocks_per_click=24 notated_32nd_notes_per_beat=8 time=0>\n",
      "<meta message key_signature key='C' time=0>\n",
      "<meta message set_tempo tempo=545455 time=0>\n",
      "control_change channel=0 control=121 value=0 time=0\n",
      "program_change channel=0 program=0 time=0\n",
      "control_change channel=0 control=7 value=100 time=0\n",
      "control_change channel=0 control=10 value=64 time=0\n",
      "control_change channel=0 control=91 value=0 time=0\n",
      "control_change channel=0 control=93 value=0 time=0\n",
      "<meta message midi_port port=0 time=0>\n",
      "note_on channel=0 note=76 velocity=80 time=0\n",
      "note_on channel=0 note=76 velocity=0 time=113\n",
      "note_on channel=0 note=75 velocity=80 time=7\n",
      "note_on channel=0 note=75 velocity=0 time=113\n",
      "<meta message time_signature numerator=3 denominator=8 clocks_per_click=24 notated_32nd_notes_per_beat=8 time=7>\n",
      "note_on channel=0 note=76 velocity=80 time=0\n",
      "note_on channel=0 note=76 velocity=0 time=113\n",
      "note_on channel=0 note=75 velocity=80 time=7\n",
      "note_on channel=0 note=75 velocity=0 time=113\n",
      "note_on channel=0 note=76 velocity=80 time=7\n",
      "note_on channel=0 note=76 velocity=0 time=113\n",
      "note_on channel=0 note=71 velocity=80 time=7\n",
      "note_on channel=0 note=71 velocity=0 time=113\n",
      "pitchwheel pitch=-100\n",
      "note_on channel=0 note=74 velocity=80 time=7\n",
      "note_on channel=0 note=74 velocity=0 time=113\n",
      "pitchwheel pitch=-2100\n",
      "note_on channel=0 note=72 velocity=80 time=7\n",
      "note_on channel=0 note=72 velocity=0 time=113\n",
      "pitchwheel pitch=0\n",
      "note_on channel=0 note=45 velocity=80 time=7\n",
      "pitchwheel pitch=-200\n",
      "note_on channel=0 note=69 velocity=80 time=0\n",
      "control_change channel=0 control=64 value=127 time=2\n",
      "note_on channel=0 note=45 velocity=0 time=111\n",
      "pitchwheel pitch=-200\n",
      "note_on channel=0 note=52 velocity=80 time=7\n",
      "note_on channel=0 note=69 velocity=0 time=107\n",
      "note_on channel=0 note=52 velocity=0 time=6\n",
      "pitchwheel pitch=-400\n",
      "note_on channel=0 note=57 velocity=80 time=7\n",
      "note_on channel=0 note=57 velocity=0 time=113\n",
      "pitchwheel pitch=0\n",
      "note_on channel=0 note=60 velocity=80 time=7\n",
      "note_on channel=0 note=60 velocity=0 time=113\n",
      "pitchwheel pitch=0\n",
      "note_on channel=0 note=64 velocity=80 time=7\n",
      "note_on channel=0 note=64 velocity=0 time=113\n",
      "pitchwheel pitch=0\n",
      "note_on channel=0 note=69 velocity=80 time=7\n",
      "note_on channel=0 note=69 velocity=0 time=113\n",
      "pitchwheel pitch=0\n",
      "note_on channel=0 note=40 velocity=80 time=7\n",
      "pitchwheel pitch=-900\n",
      "note_on channel=0 note=71 velocity=80 time=0\n",
      "control_change channel=0 control=64 value=0 time=1\n",
      "control_change channel=0 control=64 value=127 time=1\n",
      "note_on channel=0 note=40 velocity=0 time=111\n",
      "pitchwheel pitch=0\n",
      "note_on channel=0 note=52 velocity=80 time=7\n",
      "note_on channel=0 note=71 velocity=0 time=107\n",
      "note_on channel=0 note=52 velocity=0 time=6\n",
      "pitchwheel pitch=0\n",
      "note_on channel=0 note=56 velocity=80 time=7\n",
      "note_on channel=0 note=56 velocity=0 time=113\n",
      "pitchwheel pitch=0\n",
      "note_on channel=0 note=64 velocity=80 time=7\n",
      "note_on channel=0 note=64 velocity=0 time=113\n",
      "pitchwheel pitch=-700\n",
      "note_on channel=0 note=68 velocity=80 time=7\n",
      "note_on channel=0 note=68 velocity=0 time=113\n",
      "pitchwheel pitch=0\n",
      "note_on channel=0 note=71 velocity=80 time=7\n",
      "note_on channel=0 note=71 velocity=0 time=113\n",
      "pitchwheel pitch=-100\n",
      "note_on channel=0 note=45 velocity=80 time=7\n",
      "pitchwheel pitch=0\n",
      "note_on channel=0 note=72 velocity=80 time=0\n",
      "control_change channel=0 control=64 value=0 time=1\n",
      "control_change channel=0 control=64 value=127 time=1\n",
      "note_on channel=0 note=45 velocity=0 time=111\n",
      "pitchwheel pitch=-200\n",
      "note_on channel=0 note=52 velocity=80 time=7\n",
      "note_on channel=0 note=72 velocity=0 time=107\n",
      "note_on channel=0 note=52 velocity=0 time=6\n",
      "pitchwheel pitch=-500\n",
      "note_on channel=0 note=57 velocity=80 time=7\n",
      "note_on channel=0 note=57 velocity=0 time=113\n",
      "pitchwheel pitch=-100\n",
      "note_on channel=0 note=64 velocity=80 time=7\n",
      "note_on channel=0 note=64 velocity=0 time=113\n",
      "pitchwheel pitch=-500\n",
      "note_on channel=0 note=76 velocity=80 time=7\n",
      "note_on channel=0 note=76 velocity=0 time=113\n",
      "pitchwheel pitch=-300\n",
      "note_on channel=0 note=75 velocity=80 time=7\n",
      "note_on channel=0 note=75 velocity=0 time=113\n",
      "pitchwheel pitch=-200\n",
      "note_on channel=0 note=76 velocity=80 time=7\n",
      "control_change channel=0 control=64 value=0 time=1\n",
      "note_on channel=0 note=76 velocity=0 time=112\n",
      "pitchwheel pitch=0\n",
      "note_on channel=0 note=75 velocity=80 time=7\n",
      "note_on channel=0 note=75 velocity=0 time=113\n",
      "pitchwheel pitch=0\n",
      "note_on channel=0 note=76 velocity=80 time=7\n",
      "note_on channel=0 note=76 velocity=0 time=113\n",
      "pitchwheel pitch=-600\n",
      "note_on channel=0 note=71 velocity=80 time=7\n",
      "note_on channel=0 note=71 velocity=0 time=113\n",
      "pitchwheel pitch=0\n",
      "note_on channel=0 note=74 velocity=80 time=7\n",
      "note_on channel=0 note=74 velocity=0 time=113\n",
      "pitchwheel pitch=-300\n",
      "note_on channel=0 note=72 velocity=80 time=7\n",
      "note_on channel=0 note=72 velocity=0 time=113\n",
      "pitchwheel pitch=-300\n",
      "note_on channel=0 note=45 velocity=80 time=7\n",
      "pitchwheel pitch=-1900\n",
      "note_on channel=0 note=69 velocity=80 time=0\n",
      "control_change channel=0 control=64 value=127 time=2\n",
      "note_on channel=0 note=45 velocity=0 time=111\n",
      "pitchwheel pitch=0\n",
      "note_on channel=0 note=52 velocity=80 time=7\n",
      "note_on channel=0 note=69 velocity=0 time=107\n",
      "note_on channel=0 note=52 velocity=0 time=6\n",
      "pitchwheel pitch=-900\n",
      "note_on channel=0 note=57 velocity=80 time=7\n",
      "note_on channel=0 note=57 velocity=0 time=113\n",
      "pitchwheel pitch=-1000\n",
      "note_on channel=0 note=60 velocity=80 time=7\n",
      "note_on channel=0 note=60 velocity=0 time=113\n",
      "pitchwheel pitch=-1900\n",
      "note_on channel=0 note=64 velocity=80 time=7\n",
      "note_on channel=0 note=64 velocity=0 time=113\n",
      "pitchwheel pitch=-1900\n",
      "note_on channel=0 note=69 velocity=80 time=7\n",
      "note_on channel=0 note=69 velocity=0 time=113\n",
      "pitchwheel pitch=0\n",
      "note_on channel=0 note=40 velocity=80 time=7\n",
      "pitchwheel pitch=-200\n",
      "note_on channel=0 note=71 velocity=80 time=0\n",
      "control_change channel=0 control=64 value=0 time=1\n",
      "control_change channel=0 control=64 value=127 time=1\n",
      "note_on channel=0 note=40 velocity=0 time=111\n",
      "pitchwheel pitch=0\n",
      "note_on channel=0 note=52 velocity=80 time=7\n",
      "note_on channel=0 note=71 velocity=0 time=107\n",
      "note_on channel=0 note=52 velocity=0 time=6\n",
      "pitchwheel pitch=-1700\n",
      "note_on channel=0 note=56 velocity=80 time=7\n",
      "note_on channel=0 note=56 velocity=0 time=113\n",
      "pitchwheel pitch=-100\n",
      "note_on channel=0 note=62 velocity=80 time=7\n",
      "note_on channel=0 note=62 velocity=0 time=113\n",
      "pitchwheel pitch=-800\n",
      "note_on channel=0 note=72 velocity=80 time=7\n",
      "note_on channel=0 note=72 velocity=0 time=113\n",
      "pitchwheel pitch=-1300\n",
      "note_on channel=0 note=71 velocity=80 time=7\n",
      "note_on channel=0 note=71 velocity=0 time=113\n",
      "pitchwheel pitch=-100\n",
      "note_on channel=0 note=45 velocity=80 time=7\n",
      "pitchwheel pitch=-700\n",
      "note_on channel=0 note=69 velocity=80 time=0\n",
      "control_change channel=0 control=64 value=0 time=1\n",
      "note_on channel=0 note=45 velocity=0 time=112\n",
      "pitchwheel pitch=0\n",
      "note_on channel=0 note=52 velocity=80 time=7\n",
      "note_on channel=0 note=69 velocity=0 time=107\n",
      "note_on channel=0 note=52 velocity=0 time=6\n",
      "pitchwheel pitch=0\n",
      "note_on channel=0 note=57 velocity=80 time=7\n",
      "note_on channel=0 note=57 velocity=0 time=113\n",
      "pitchwheel pitch=0\n",
      "note_on channel=0 note=71 velocity=80 time=7\n",
      "note_on channel=0 note=71 velocity=0 time=113\n",
      "pitchwheel pitch=-100\n",
      "note_on channel=0 note=72 velocity=80 time=7\n",
      "note_on channel=0 note=72 velocity=0 time=113\n",
      "pitchwheel pitch=-200\n",
      "note_on channel=0 note=74 velocity=80 time=7\n",
      "note_on channel=0 note=74 velocity=0 time=113\n",
      "pitchwheel pitch=-800\n",
      "note_on channel=0 note=48 velocity=80 time=7\n",
      "pitchwheel pitch=-1600\n",
      "note_on channel=0 note=76 velocity=80 time=0\n",
      "control_change channel=0 control=64 value=127 time=2\n",
      "note_on channel=0 note=48 velocity=0 time=111\n",
      "pitchwheel pitch=-2900\n",
      "note_on channel=0 note=55 velocity=80 time=7\n",
      "note_on channel=0 note=55 velocity=0 time=113\n",
      "pitchwheel pitch=0\n",
      "note_on channel=0 note=60 velocity=80 time=7\n",
      "note_on channel=0 note=76 velocity=0 time=101\n",
      "note_on channel=0 note=60 velocity=0 time=12\n",
      "pitchwheel pitch=-1500\n",
      "note_on channel=0 note=67 velocity=80 time=7\n",
      "note_on channel=0 note=67 velocity=0 time=113\n",
      "pitchwheel pitch=-300\n",
      "note_on channel=0 note=77 velocity=80 time=7\n",
      "note_on channel=0 note=77 velocity=0 time=113\n",
      "pitchwheel pitch=-2900\n",
      "note_on channel=0 note=76 velocity=80 time=7\n",
      "note_on channel=0 note=76 velocity=0 time=113\n",
      "pitchwheel pitch=0\n",
      "note_on channel=0 note=43 velocity=80 time=7\n",
      "pitchwheel pitch=-600\n",
      "note_on channel=0 note=74 velocity=80 time=0\n",
      "control_change channel=0 control=64 value=0 time=1\n",
      "control_change channel=0 control=64 value=127 time=1\n",
      "note_on channel=0 note=43 velocity=0 time=111\n",
      "pitchwheel pitch=-100\n",
      "note_on channel=0 note=55 velocity=80 time=7\n",
      "note_on channel=0 note=55 velocity=0 time=113\n",
      "pitchwheel pitch=-1100\n",
      "note_on channel=0 note=59 velocity=80 time=7\n",
      "note_on channel=0 note=74 velocity=0 time=101\n",
      "note_on channel=0 note=59 velocity=0 time=12\n",
      "pitchwheel pitch=0\n",
      "note_on channel=0 note=65 velocity=80 time=7\n",
      "note_on channel=0 note=65 velocity=0 time=113\n",
      "pitchwheel pitch=-200\n",
      "note_on channel=0 note=76 velocity=80 time=7\n",
      "note_on channel=0 note=76 velocity=0 time=113\n",
      "pitchwheel pitch=-300\n",
      "note_on channel=0 note=74 velocity=80 time=7\n",
      "note_on channel=0 note=74 velocity=0 time=113\n",
      "pitchwheel pitch=0\n",
      "note_on channel=0 note=45 velocity=80 time=7\n",
      "pitchwheel pitch=-400\n",
      "note_on channel=0 note=72 velocity=80 time=0\n",
      "control_change channel=0 control=64 value=0 time=1\n",
      "control_change channel=0 control=64 value=127 time=1\n",
      "note_on channel=0 note=45 velocity=0 time=111\n",
      "pitchwheel pitch=-600\n",
      "note_on channel=0 note=52 velocity=80 time=7\n",
      "note_on channel=0 note=52 velocity=0 time=113\n",
      "pitchwheel pitch=0\n",
      "note_on channel=0 note=57 velocity=80 time=7\n",
      "note_on channel=0 note=72 velocity=0 time=101\n",
      "note_on channel=0 note=57 velocity=0 time=12\n",
      "pitchwheel pitch=-700\n",
      "note_on channel=0 note=64 velocity=80 time=7\n",
      "note_on channel=0 note=64 velocity=0 time=113\n",
      "pitchwheel pitch=-1000\n",
      "note_on channel=0 note=74 velocity=80 time=7\n",
      "note_on channel=0 note=74 velocity=0 time=113\n",
      "pitchwheel pitch=0\n",
      "note_on channel=0 note=72 velocity=80 time=7\n",
      "note_on channel=0 note=72 velocity=0 time=113\n",
      "pitchwheel pitch=-1900\n",
      "note_on channel=0 note=40 velocity=80 time=7\n",
      "pitchwheel pitch=-400\n",
      "note_on channel=0 note=71 velocity=80 time=0\n",
      "note_on channel=0 note=40 velocity=0 time=113\n",
      "pitchwheel pitch=-400\n",
      "note_on channel=0 note=52 velocity=80 time=7\n",
      "note_on channel=0 note=71 velocity=0 time=107\n",
      "note_on channel=0 note=52 velocity=0 time=6\n",
      "pitchwheel pitch=-200\n",
      "note_on channel=0 note=64 velocity=80 time=7\n",
      "note_on channel=0 note=64 velocity=0 time=113\n",
      "pitchwheel pitch=-200\n",
      "note_on channel=0 note=64 velocity=80 time=7\n",
      "note_on channel=0 note=64 velocity=0 time=113\n",
      "pitchwheel pitch=-200\n",
      "note_on channel=0 note=76 velocity=80 time=7\n",
      "note_on channel=0 note=76 velocity=0 time=113\n",
      "pitchwheel pitch=0\n",
      "note_on channel=0 note=64 velocity=80 time=7\n",
      "note_on channel=0 note=64 velocity=0 time=113\n",
      "pitchwheel pitch=-300\n",
      "note_on channel=0 note=76 velocity=80 time=7\n",
      "note_on channel=0 note=76 velocity=0 time=113\n",
      "pitchwheel pitch=-300\n",
      "note_on channel=0 note=76 velocity=80 time=7\n",
      "note_on channel=0 note=76 velocity=0 time=113\n",
      "pitchwheel pitch=0\n",
      "note_on channel=0 note=88 velocity=80 time=7\n",
      "note_on channel=0 note=88 velocity=0 time=113\n",
      "pitchwheel pitch=-2700\n",
      "note_on channel=0 note=75 velocity=80 time=7\n",
      "note_on channel=0 note=75 velocity=0 time=113\n",
      "pitchwheel pitch=-100\n",
      "note_on channel=0 note=76 velocity=80 time=7\n",
      "note_on channel=0 note=76 velocity=0 time=113\n",
      "pitchwheel pitch=0\n",
      "note_on channel=0 note=75 velocity=80 time=7\n",
      "note_on channel=0 note=75 velocity=0 time=113\n",
      "pitchwheel pitch=0\n",
      "note_on channel=0 note=76 velocity=80 time=7\n",
      "control_change channel=0 control=64 value=0 time=1\n",
      "pitchwheel pitch=-400\n",
      "note_on channel=0 note=75 velocity=80 time=119\n",
      "note_on channel=0 note=76 velocity=0 time=107\n",
      "note_on channel=0 note=75 velocity=0 time=6\n",
      "pitchwheel pitch=-600\n",
      "note_on channel=0 note=76 velocity=80 time=7\n",
      "note_on channel=0 note=76 velocity=0 time=113\n",
      "pitchwheel pitch=0\n",
      "note_on channel=0 note=75 velocity=80 time=7\n",
      "note_on channel=0 note=75 velocity=0 time=113\n",
      "pitchwheel pitch=-700\n",
      "note_on channel=0 note=76 velocity=80 time=7\n",
      "note_on channel=0 note=76 velocity=0 time=113\n",
      "pitchwheel pitch=-100\n",
      "note_on channel=0 note=75 velocity=80 time=7\n",
      "note_on channel=0 note=75 velocity=0 time=113\n",
      "pitchwheel pitch=0\n",
      "note_on channel=0 note=76 velocity=80 time=7\n",
      "note_on channel=0 note=76 velocity=0 time=113\n",
      "pitchwheel pitch=-300\n",
      "note_on channel=0 note=75 velocity=80 time=7\n",
      "note_on channel=0 note=75 velocity=0 time=113\n",
      "pitchwheel pitch=-600\n",
      "note_on channel=0 note=76 velocity=80 time=7\n",
      "note_on channel=0 note=76 velocity=0 time=113\n",
      "pitchwheel pitch=0\n",
      "note_on channel=0 note=71 velocity=80 time=7\n",
      "note_on channel=0 note=71 velocity=0 time=113\n",
      "pitchwheel pitch=0\n",
      "note_on channel=0 note=74 velocity=80 time=7\n",
      "note_on channel=0 note=74 velocity=0 time=113\n",
      "pitchwheel pitch=-500\n",
      "note_on channel=0 note=72 velocity=80 time=7\n",
      "note_on channel=0 note=72 velocity=0 time=113\n",
      "<meta message time_signature numerator=1 denominator=8 clocks_per_click=24 notated_32nd_notes_per_beat=8 time=7>\n",
      "pitchwheel pitch=-1200\n",
      "note_on channel=0 note=33 velocity=80 time=0\n",
      "pitchwheel pitch=0\n",
      "note_on channel=0 note=45 velocity=80 time=0\n",
      "pitchwheel pitch=-100\n",
      "note_on channel=0 note=69 velocity=80 time=0\n",
      "note_on channel=0 note=33 velocity=0 time=227\n",
      "note_on channel=0 note=45 velocity=0 time=0\n",
      "note_on channel=0 note=69 velocity=0 time=0\n",
      "<meta message end_of_track time=1>\n"
     ]
    }
   ],
   "source": [
    "detuneFactor=-20\n",
    "rowNumber=11\n",
    "\n",
    "def myround(x, base=5):\n",
    "    return base * round(x/base)\n",
    "\n",
    "index_j=0\n",
    "index_note_onset=0\n",
    "MessagesOutput=[]\n",
    "for j in MessagesInput:    \n",
    "    if \"velocity=80\" in j:\n",
    "        if index_note_onset>5:\n",
    "            pitchbend=int(myround((df.iloc[rowNumber,index_j+2])) * detuneFactor)\n",
    "            index_j=index_j+1\n",
    "            MessagesOutput.append(\"pitchwheel pitch=\" + str(pitchbend))\n",
    "            print(\"pitchwheel pitch=\" + str(pitchbend))\n",
    "        index_note_onset = index_note_onset+1\n",
    "    MessagesOutput.append(j)\n",
    "    print(j)"
   ]
  },
  {
   "cell_type": "code",
   "execution_count": 31,
   "metadata": {},
   "outputs": [],
   "source": [
    "test=0\n",
    "mTest=0\n",
    "cTest=0\n",
    "pTest=0\n",
    "PitchTest=0\n",
    "nTest=0\n",
    "\n",
    "stringCodeMeta=\"\"\n",
    "stringCodeNote=\"\"\n",
    "stringCodePitch=\"\"\n",
    "stringCodeProgram=\"\"\n",
    "stringCodeControl=\"\"\n",
    "\n",
    "midOut = MidiFile()\n",
    "track = MidiTrack()\n",
    "midOut.tracks.append(track)\n",
    "\n",
    "for k in MessagesOutput:\n",
    "    splat=k.split(\" \")\n",
    "    test=test+1\n",
    "    first=\"'\" + splat[0].replace(\"<\",\"\") + \"'\" + \", \"\n",
    "    second=splat[1] + \", \"\n",
    "    if len(splat)==3:\n",
    "        third=splat[2].replace(\">\",\"\")\n",
    "        fourth=\"\"\n",
    "        fifth=\"\"\n",
    "        sixth=\"\"\n",
    "        seventh=\"\"\n",
    "        eighth=\"\"\n",
    "    elif len(splat)==4:\n",
    "        third=splat[2].replace(\">\",\"\") + \", \"\n",
    "        fourth=splat[3].replace(\">\",\"\")\n",
    "        fifth=\"\"\n",
    "        sixth=\"\"\n",
    "        seventh=\"\"\n",
    "        eighth=\"\"\n",
    "    elif len(splat)==5:\n",
    "        third=splat[2].replace(\">\",\"\") + \", \"\n",
    "        fourth=splat[3].replace(\">\",\"\") + \", \"\n",
    "        fifth=splat[4].replace(\">\",\"\")\n",
    "        sixth=\"\"\n",
    "        seventh=\"\"\n",
    "        eighth=\"\"\n",
    "    elif len(splat)==6:\n",
    "        third=splat[2].replace(\">\",\"\") + \", \"\n",
    "        fourth=splat[3].replace(\">\",\"\") + \", \"\n",
    "        fifth=splat[4].replace(\">\",\"\") + \", \"\n",
    "        sixth=splat[5].replace(\">\",\"\")\n",
    "        seventh=\"\"\n",
    "        eighth=\"\"\n",
    "    elif len(splat)==7:\n",
    "        third=splat[2].replace(\">\",\"\") + \", \"\n",
    "        fourth=splat[3].replace(\">\",\"\") + \", \"\n",
    "        fifth=splat[4].replace(\">\",\"\") + \", \"\n",
    "        sixth=splat[5].replace(\">\",\"\") + \", \"\n",
    "        seventh=splat[6].replace(\">\",\"\")\n",
    "        eighth=\"\"\n",
    "    elif len(splat)==8:\n",
    "        third=splat[2].replace(\">\",\"\") + \", \"\n",
    "        fourth=splat[3].replace(\">\",\"\") + \", \"\n",
    "        fifth=splat[4].replace(\">\",\"\") + \", \"\n",
    "        sixth=splat[5].replace(\">\",\"\") + \", \"\n",
    "        seventh=splat[6].replace(\">\",\"\") + \", \"\n",
    "        eighth=splat[7].replace(\">\",\"\")\n",
    "\n",
    "    if \"meta message\" in k:\n",
    "        third=\"'\" + splat[2].replace(\"<\",\"\") + \"'\" + \", \"\n",
    "        stringCodeMeta=\"track.append(MetaMessage(\" + third + fourth + fifth + sixth + seventh + eighth + \"))\"\n",
    "        exec(stringCodeMeta)\n",
    "        mTest=mTest+1\n",
    "    elif \"control_change\" in k:\n",
    "        stringCodeControl=\"track.append(Message(\" + first + second + third + fourth + fifth + \"))\"\n",
    "        exec(stringCodeControl)\n",
    "        cTest=cTest+1\n",
    "    elif \"program_change\" in k:\n",
    "        stringCodeProgram=\"track.append(Message(\" + first + second + third + fourth + \"))\"\n",
    "        exec(stringCodeProgram)\n",
    "        pTest=pTest+1\n",
    "    elif \"pitchwheel\" in k:\n",
    "        stringCodePitch=\"track.append(Message(\" + first + second + \"))\"\n",
    "        exec(stringCodePitch)\n",
    "        PitchTest=PitchTest+1\n",
    "    elif \"note_on\" in k:\n",
    "        stringCodeNote=\"track.append(Message(\" + first + second + third + fourth + fifth + \"))\"\n",
    "        exec(stringCodeNote)\n",
    "        nTest=nTest+1\n",
    "\n",
    "midOut.save('output.mid')"
   ]
  },
  {
   "cell_type": "code",
   "execution_count": 32,
   "metadata": {},
   "outputs": [
    {
     "name": "stdout",
     "output_type": "stream",
     "text": [
      "339 8 21 1 99 210 track.append(MetaMessage('end_of_track', time=1)) track.append(Message('note_on', channel=0, note=69, velocity=0, time=0))\n"
     ]
    }
   ],
   "source": [
    "print(test, mTest, cTest, pTest, PitchTest, nTest, stringCodeMeta, stringCodeNote)"
   ]
  },
  {
   "cell_type": "code",
   "execution_count": 33,
   "metadata": {},
   "outputs": [
    {
     "name": "stdout",
     "output_type": "stream",
     "text": [
      "Track 0: Piano\u0000\n",
      "<meta message track_name name='Piano\\x00' time=0>\n",
      "<meta message time_signature numerator=1 denominator=8 clocks_per_click=24 notated_32nd_notes_per_beat=8 time=0>\n",
      "<meta message key_signature key='C' time=0>\n",
      "<meta message set_tempo tempo=545455 time=0>\n",
      "control_change channel=0 control=121 value=0 time=0\n",
      "program_change channel=0 program=0 time=0\n",
      "control_change channel=0 control=7 value=100 time=0\n",
      "control_change channel=0 control=10 value=64 time=0\n",
      "control_change channel=0 control=91 value=0 time=0\n",
      "control_change channel=0 control=93 value=0 time=0\n",
      "<meta message midi_port port=0 time=0>\n",
      "note_on channel=0 note=76 velocity=80 time=0\n",
      "note_on channel=0 note=76 velocity=0 time=113\n",
      "note_on channel=0 note=75 velocity=80 time=7\n",
      "note_on channel=0 note=75 velocity=0 time=113\n",
      "<meta message time_signature numerator=3 denominator=8 clocks_per_click=24 notated_32nd_notes_per_beat=8 time=7>\n",
      "note_on channel=0 note=76 velocity=80 time=0\n",
      "note_on channel=0 note=76 velocity=0 time=113\n",
      "note_on channel=0 note=75 velocity=80 time=7\n",
      "note_on channel=0 note=75 velocity=0 time=113\n",
      "note_on channel=0 note=76 velocity=80 time=7\n",
      "note_on channel=0 note=76 velocity=0 time=113\n",
      "note_on channel=0 note=71 velocity=80 time=7\n",
      "note_on channel=0 note=71 velocity=0 time=113\n",
      "pitchwheel channel=0 pitch=-100 time=0\n",
      "note_on channel=0 note=74 velocity=80 time=7\n",
      "note_on channel=0 note=74 velocity=0 time=113\n",
      "pitchwheel channel=0 pitch=-2100 time=0\n",
      "note_on channel=0 note=72 velocity=80 time=7\n",
      "note_on channel=0 note=72 velocity=0 time=113\n",
      "pitchwheel channel=0 pitch=0 time=0\n",
      "note_on channel=0 note=45 velocity=80 time=7\n",
      "pitchwheel channel=0 pitch=-200 time=0\n",
      "note_on channel=0 note=69 velocity=80 time=0\n",
      "control_change channel=0 control=64 value=127 time=2\n",
      "note_on channel=0 note=45 velocity=0 time=111\n",
      "pitchwheel channel=0 pitch=-200 time=0\n",
      "note_on channel=0 note=52 velocity=80 time=7\n",
      "note_on channel=0 note=69 velocity=0 time=107\n",
      "note_on channel=0 note=52 velocity=0 time=6\n",
      "pitchwheel channel=0 pitch=-400 time=0\n",
      "note_on channel=0 note=57 velocity=80 time=7\n",
      "note_on channel=0 note=57 velocity=0 time=113\n",
      "pitchwheel channel=0 pitch=0 time=0\n",
      "note_on channel=0 note=60 velocity=80 time=7\n",
      "note_on channel=0 note=60 velocity=0 time=113\n",
      "pitchwheel channel=0 pitch=0 time=0\n",
      "note_on channel=0 note=64 velocity=80 time=7\n",
      "note_on channel=0 note=64 velocity=0 time=113\n",
      "pitchwheel channel=0 pitch=0 time=0\n",
      "note_on channel=0 note=69 velocity=80 time=7\n",
      "note_on channel=0 note=69 velocity=0 time=113\n",
      "pitchwheel channel=0 pitch=0 time=0\n",
      "note_on channel=0 note=40 velocity=80 time=7\n",
      "pitchwheel channel=0 pitch=-900 time=0\n",
      "note_on channel=0 note=71 velocity=80 time=0\n",
      "control_change channel=0 control=64 value=0 time=1\n",
      "control_change channel=0 control=64 value=127 time=1\n",
      "note_on channel=0 note=40 velocity=0 time=111\n",
      "pitchwheel channel=0 pitch=0 time=0\n",
      "note_on channel=0 note=52 velocity=80 time=7\n",
      "note_on channel=0 note=71 velocity=0 time=107\n",
      "note_on channel=0 note=52 velocity=0 time=6\n",
      "pitchwheel channel=0 pitch=0 time=0\n",
      "note_on channel=0 note=56 velocity=80 time=7\n",
      "note_on channel=0 note=56 velocity=0 time=113\n",
      "pitchwheel channel=0 pitch=0 time=0\n",
      "note_on channel=0 note=64 velocity=80 time=7\n",
      "note_on channel=0 note=64 velocity=0 time=113\n",
      "pitchwheel channel=0 pitch=-700 time=0\n",
      "note_on channel=0 note=68 velocity=80 time=7\n",
      "note_on channel=0 note=68 velocity=0 time=113\n",
      "pitchwheel channel=0 pitch=0 time=0\n",
      "note_on channel=0 note=71 velocity=80 time=7\n",
      "note_on channel=0 note=71 velocity=0 time=113\n",
      "pitchwheel channel=0 pitch=-100 time=0\n",
      "note_on channel=0 note=45 velocity=80 time=7\n",
      "pitchwheel channel=0 pitch=0 time=0\n",
      "note_on channel=0 note=72 velocity=80 time=0\n",
      "control_change channel=0 control=64 value=0 time=1\n",
      "control_change channel=0 control=64 value=127 time=1\n",
      "note_on channel=0 note=45 velocity=0 time=111\n",
      "pitchwheel channel=0 pitch=-200 time=0\n",
      "note_on channel=0 note=52 velocity=80 time=7\n",
      "note_on channel=0 note=72 velocity=0 time=107\n",
      "note_on channel=0 note=52 velocity=0 time=6\n",
      "pitchwheel channel=0 pitch=-500 time=0\n",
      "note_on channel=0 note=57 velocity=80 time=7\n",
      "note_on channel=0 note=57 velocity=0 time=113\n",
      "pitchwheel channel=0 pitch=-100 time=0\n",
      "note_on channel=0 note=64 velocity=80 time=7\n",
      "note_on channel=0 note=64 velocity=0 time=113\n",
      "pitchwheel channel=0 pitch=-500 time=0\n",
      "note_on channel=0 note=76 velocity=80 time=7\n",
      "note_on channel=0 note=76 velocity=0 time=113\n",
      "pitchwheel channel=0 pitch=-300 time=0\n",
      "note_on channel=0 note=75 velocity=80 time=7\n",
      "note_on channel=0 note=75 velocity=0 time=113\n",
      "pitchwheel channel=0 pitch=-200 time=0\n",
      "note_on channel=0 note=76 velocity=80 time=7\n",
      "control_change channel=0 control=64 value=0 time=1\n",
      "note_on channel=0 note=76 velocity=0 time=112\n",
      "pitchwheel channel=0 pitch=0 time=0\n",
      "note_on channel=0 note=75 velocity=80 time=7\n",
      "note_on channel=0 note=75 velocity=0 time=113\n",
      "pitchwheel channel=0 pitch=0 time=0\n",
      "note_on channel=0 note=76 velocity=80 time=7\n",
      "note_on channel=0 note=76 velocity=0 time=113\n",
      "pitchwheel channel=0 pitch=-600 time=0\n",
      "note_on channel=0 note=71 velocity=80 time=7\n",
      "note_on channel=0 note=71 velocity=0 time=113\n",
      "pitchwheel channel=0 pitch=0 time=0\n",
      "note_on channel=0 note=74 velocity=80 time=7\n",
      "note_on channel=0 note=74 velocity=0 time=113\n",
      "pitchwheel channel=0 pitch=-300 time=0\n",
      "note_on channel=0 note=72 velocity=80 time=7\n",
      "note_on channel=0 note=72 velocity=0 time=113\n",
      "pitchwheel channel=0 pitch=-300 time=0\n",
      "note_on channel=0 note=45 velocity=80 time=7\n",
      "pitchwheel channel=0 pitch=-1900 time=0\n",
      "note_on channel=0 note=69 velocity=80 time=0\n",
      "control_change channel=0 control=64 value=127 time=2\n",
      "note_on channel=0 note=45 velocity=0 time=111\n",
      "pitchwheel channel=0 pitch=0 time=0\n",
      "note_on channel=0 note=52 velocity=80 time=7\n",
      "note_on channel=0 note=69 velocity=0 time=107\n",
      "note_on channel=0 note=52 velocity=0 time=6\n",
      "pitchwheel channel=0 pitch=-900 time=0\n",
      "note_on channel=0 note=57 velocity=80 time=7\n",
      "note_on channel=0 note=57 velocity=0 time=113\n",
      "pitchwheel channel=0 pitch=-1000 time=0\n",
      "note_on channel=0 note=60 velocity=80 time=7\n",
      "note_on channel=0 note=60 velocity=0 time=113\n",
      "pitchwheel channel=0 pitch=-1900 time=0\n",
      "note_on channel=0 note=64 velocity=80 time=7\n",
      "note_on channel=0 note=64 velocity=0 time=113\n",
      "pitchwheel channel=0 pitch=-1900 time=0\n",
      "note_on channel=0 note=69 velocity=80 time=7\n",
      "note_on channel=0 note=69 velocity=0 time=113\n",
      "pitchwheel channel=0 pitch=0 time=0\n",
      "note_on channel=0 note=40 velocity=80 time=7\n",
      "pitchwheel channel=0 pitch=-200 time=0\n",
      "note_on channel=0 note=71 velocity=80 time=0\n",
      "control_change channel=0 control=64 value=0 time=1\n",
      "control_change channel=0 control=64 value=127 time=1\n",
      "note_on channel=0 note=40 velocity=0 time=111\n",
      "pitchwheel channel=0 pitch=0 time=0\n",
      "note_on channel=0 note=52 velocity=80 time=7\n",
      "note_on channel=0 note=71 velocity=0 time=107\n",
      "note_on channel=0 note=52 velocity=0 time=6\n",
      "pitchwheel channel=0 pitch=-1700 time=0\n",
      "note_on channel=0 note=56 velocity=80 time=7\n",
      "note_on channel=0 note=56 velocity=0 time=113\n",
      "pitchwheel channel=0 pitch=-100 time=0\n",
      "note_on channel=0 note=62 velocity=80 time=7\n",
      "note_on channel=0 note=62 velocity=0 time=113\n",
      "pitchwheel channel=0 pitch=-800 time=0\n",
      "note_on channel=0 note=72 velocity=80 time=7\n",
      "note_on channel=0 note=72 velocity=0 time=113\n",
      "pitchwheel channel=0 pitch=-1300 time=0\n",
      "note_on channel=0 note=71 velocity=80 time=7\n",
      "note_on channel=0 note=71 velocity=0 time=113\n",
      "pitchwheel channel=0 pitch=-100 time=0\n",
      "note_on channel=0 note=45 velocity=80 time=7\n",
      "pitchwheel channel=0 pitch=-700 time=0\n",
      "note_on channel=0 note=69 velocity=80 time=0\n",
      "control_change channel=0 control=64 value=0 time=1\n",
      "note_on channel=0 note=45 velocity=0 time=112\n",
      "pitchwheel channel=0 pitch=0 time=0\n",
      "note_on channel=0 note=52 velocity=80 time=7\n",
      "note_on channel=0 note=69 velocity=0 time=107\n",
      "note_on channel=0 note=52 velocity=0 time=6\n",
      "pitchwheel channel=0 pitch=0 time=0\n",
      "note_on channel=0 note=57 velocity=80 time=7\n",
      "note_on channel=0 note=57 velocity=0 time=113\n",
      "pitchwheel channel=0 pitch=0 time=0\n",
      "note_on channel=0 note=71 velocity=80 time=7\n",
      "note_on channel=0 note=71 velocity=0 time=113\n",
      "pitchwheel channel=0 pitch=-100 time=0\n",
      "note_on channel=0 note=72 velocity=80 time=7\n",
      "note_on channel=0 note=72 velocity=0 time=113\n",
      "pitchwheel channel=0 pitch=-200 time=0\n",
      "note_on channel=0 note=74 velocity=80 time=7\n",
      "note_on channel=0 note=74 velocity=0 time=113\n",
      "pitchwheel channel=0 pitch=-800 time=0\n",
      "note_on channel=0 note=48 velocity=80 time=7\n",
      "pitchwheel channel=0 pitch=-1600 time=0\n",
      "note_on channel=0 note=76 velocity=80 time=0\n",
      "control_change channel=0 control=64 value=127 time=2\n",
      "note_on channel=0 note=48 velocity=0 time=111\n",
      "pitchwheel channel=0 pitch=-2900 time=0\n",
      "note_on channel=0 note=55 velocity=80 time=7\n",
      "note_on channel=0 note=55 velocity=0 time=113\n",
      "pitchwheel channel=0 pitch=0 time=0\n",
      "note_on channel=0 note=60 velocity=80 time=7\n",
      "note_on channel=0 note=76 velocity=0 time=101\n",
      "note_on channel=0 note=60 velocity=0 time=12\n",
      "pitchwheel channel=0 pitch=-1500 time=0\n",
      "note_on channel=0 note=67 velocity=80 time=7\n",
      "note_on channel=0 note=67 velocity=0 time=113\n",
      "pitchwheel channel=0 pitch=-300 time=0\n",
      "note_on channel=0 note=77 velocity=80 time=7\n",
      "note_on channel=0 note=77 velocity=0 time=113\n",
      "pitchwheel channel=0 pitch=-2900 time=0\n",
      "note_on channel=0 note=76 velocity=80 time=7\n",
      "note_on channel=0 note=76 velocity=0 time=113\n",
      "pitchwheel channel=0 pitch=0 time=0\n",
      "note_on channel=0 note=43 velocity=80 time=7\n",
      "pitchwheel channel=0 pitch=-600 time=0\n",
      "note_on channel=0 note=74 velocity=80 time=0\n",
      "control_change channel=0 control=64 value=0 time=1\n",
      "control_change channel=0 control=64 value=127 time=1\n",
      "note_on channel=0 note=43 velocity=0 time=111\n",
      "pitchwheel channel=0 pitch=-100 time=0\n",
      "note_on channel=0 note=55 velocity=80 time=7\n",
      "note_on channel=0 note=55 velocity=0 time=113\n",
      "pitchwheel channel=0 pitch=-1100 time=0\n",
      "note_on channel=0 note=59 velocity=80 time=7\n",
      "note_on channel=0 note=74 velocity=0 time=101\n",
      "note_on channel=0 note=59 velocity=0 time=12\n",
      "pitchwheel channel=0 pitch=0 time=0\n",
      "note_on channel=0 note=65 velocity=80 time=7\n",
      "note_on channel=0 note=65 velocity=0 time=113\n",
      "pitchwheel channel=0 pitch=-200 time=0\n",
      "note_on channel=0 note=76 velocity=80 time=7\n",
      "note_on channel=0 note=76 velocity=0 time=113\n",
      "pitchwheel channel=0 pitch=-300 time=0\n",
      "note_on channel=0 note=74 velocity=80 time=7\n",
      "note_on channel=0 note=74 velocity=0 time=113\n",
      "pitchwheel channel=0 pitch=0 time=0\n",
      "note_on channel=0 note=45 velocity=80 time=7\n",
      "pitchwheel channel=0 pitch=-400 time=0\n",
      "note_on channel=0 note=72 velocity=80 time=0\n",
      "control_change channel=0 control=64 value=0 time=1\n",
      "control_change channel=0 control=64 value=127 time=1\n",
      "note_on channel=0 note=45 velocity=0 time=111\n",
      "pitchwheel channel=0 pitch=-600 time=0\n",
      "note_on channel=0 note=52 velocity=80 time=7\n",
      "note_on channel=0 note=52 velocity=0 time=113\n",
      "pitchwheel channel=0 pitch=0 time=0\n",
      "note_on channel=0 note=57 velocity=80 time=7\n",
      "note_on channel=0 note=72 velocity=0 time=101\n",
      "note_on channel=0 note=57 velocity=0 time=12\n",
      "pitchwheel channel=0 pitch=-700 time=0\n",
      "note_on channel=0 note=64 velocity=80 time=7\n",
      "note_on channel=0 note=64 velocity=0 time=113\n",
      "pitchwheel channel=0 pitch=-1000 time=0\n",
      "note_on channel=0 note=74 velocity=80 time=7\n",
      "note_on channel=0 note=74 velocity=0 time=113\n",
      "pitchwheel channel=0 pitch=0 time=0\n",
      "note_on channel=0 note=72 velocity=80 time=7\n",
      "note_on channel=0 note=72 velocity=0 time=113\n",
      "pitchwheel channel=0 pitch=-1900 time=0\n",
      "note_on channel=0 note=40 velocity=80 time=7\n",
      "pitchwheel channel=0 pitch=-400 time=0\n",
      "note_on channel=0 note=71 velocity=80 time=0\n",
      "note_on channel=0 note=40 velocity=0 time=113\n",
      "pitchwheel channel=0 pitch=-400 time=0\n",
      "note_on channel=0 note=52 velocity=80 time=7\n",
      "note_on channel=0 note=71 velocity=0 time=107\n",
      "note_on channel=0 note=52 velocity=0 time=6\n",
      "pitchwheel channel=0 pitch=-200 time=0\n",
      "note_on channel=0 note=64 velocity=80 time=7\n",
      "note_on channel=0 note=64 velocity=0 time=113\n",
      "pitchwheel channel=0 pitch=-200 time=0\n",
      "note_on channel=0 note=64 velocity=80 time=7\n",
      "note_on channel=0 note=64 velocity=0 time=113\n",
      "pitchwheel channel=0 pitch=-200 time=0\n",
      "note_on channel=0 note=76 velocity=80 time=7\n",
      "note_on channel=0 note=76 velocity=0 time=113\n",
      "pitchwheel channel=0 pitch=0 time=0\n",
      "note_on channel=0 note=64 velocity=80 time=7\n",
      "note_on channel=0 note=64 velocity=0 time=113\n",
      "pitchwheel channel=0 pitch=-300 time=0\n",
      "note_on channel=0 note=76 velocity=80 time=7\n",
      "note_on channel=0 note=76 velocity=0 time=113\n",
      "pitchwheel channel=0 pitch=-300 time=0\n",
      "note_on channel=0 note=76 velocity=80 time=7\n",
      "note_on channel=0 note=76 velocity=0 time=113\n",
      "pitchwheel channel=0 pitch=0 time=0\n",
      "note_on channel=0 note=88 velocity=80 time=7\n",
      "note_on channel=0 note=88 velocity=0 time=113\n",
      "pitchwheel channel=0 pitch=-2700 time=0\n",
      "note_on channel=0 note=75 velocity=80 time=7\n",
      "note_on channel=0 note=75 velocity=0 time=113\n",
      "pitchwheel channel=0 pitch=-100 time=0\n",
      "note_on channel=0 note=76 velocity=80 time=7\n",
      "note_on channel=0 note=76 velocity=0 time=113\n",
      "pitchwheel channel=0 pitch=0 time=0\n",
      "note_on channel=0 note=75 velocity=80 time=7\n",
      "note_on channel=0 note=75 velocity=0 time=113\n",
      "pitchwheel channel=0 pitch=0 time=0\n",
      "note_on channel=0 note=76 velocity=80 time=7\n",
      "control_change channel=0 control=64 value=0 time=1\n",
      "pitchwheel channel=0 pitch=-400 time=0\n",
      "note_on channel=0 note=75 velocity=80 time=119\n",
      "note_on channel=0 note=76 velocity=0 time=107\n",
      "note_on channel=0 note=75 velocity=0 time=6\n",
      "pitchwheel channel=0 pitch=-600 time=0\n",
      "note_on channel=0 note=76 velocity=80 time=7\n",
      "note_on channel=0 note=76 velocity=0 time=113\n",
      "pitchwheel channel=0 pitch=0 time=0\n",
      "note_on channel=0 note=75 velocity=80 time=7\n",
      "note_on channel=0 note=75 velocity=0 time=113\n",
      "pitchwheel channel=0 pitch=-700 time=0\n",
      "note_on channel=0 note=76 velocity=80 time=7\n",
      "note_on channel=0 note=76 velocity=0 time=113\n",
      "pitchwheel channel=0 pitch=-100 time=0\n",
      "note_on channel=0 note=75 velocity=80 time=7\n",
      "note_on channel=0 note=75 velocity=0 time=113\n",
      "pitchwheel channel=0 pitch=0 time=0\n",
      "note_on channel=0 note=76 velocity=80 time=7\n",
      "note_on channel=0 note=76 velocity=0 time=113\n",
      "pitchwheel channel=0 pitch=-300 time=0\n",
      "note_on channel=0 note=75 velocity=80 time=7\n",
      "note_on channel=0 note=75 velocity=0 time=113\n",
      "pitchwheel channel=0 pitch=-600 time=0\n",
      "note_on channel=0 note=76 velocity=80 time=7\n",
      "note_on channel=0 note=76 velocity=0 time=113\n",
      "pitchwheel channel=0 pitch=0 time=0\n",
      "note_on channel=0 note=71 velocity=80 time=7\n",
      "note_on channel=0 note=71 velocity=0 time=113\n",
      "pitchwheel channel=0 pitch=0 time=0\n",
      "note_on channel=0 note=74 velocity=80 time=7\n",
      "note_on channel=0 note=74 velocity=0 time=113\n",
      "pitchwheel channel=0 pitch=-500 time=0\n",
      "note_on channel=0 note=72 velocity=80 time=7\n",
      "note_on channel=0 note=72 velocity=0 time=113\n",
      "<meta message time_signature numerator=1 denominator=8 clocks_per_click=24 notated_32nd_notes_per_beat=8 time=7>\n",
      "pitchwheel channel=0 pitch=-1200 time=0\n",
      "note_on channel=0 note=33 velocity=80 time=0\n",
      "pitchwheel channel=0 pitch=0 time=0\n",
      "note_on channel=0 note=45 velocity=80 time=0\n",
      "pitchwheel channel=0 pitch=-100 time=0\n",
      "note_on channel=0 note=69 velocity=80 time=0\n",
      "note_on channel=0 note=33 velocity=0 time=227\n",
      "note_on channel=0 note=45 velocity=0 time=0\n",
      "note_on channel=0 note=69 velocity=0 time=0\n",
      "<meta message end_of_track time=1>\n"
     ]
    }
   ],
   "source": [
    "midIn2 = MidiFile('output.mid')\n",
    "\n",
    "MessagesInput2 = []\n",
    "for ii, tracktrack in enumerate(midIn2.tracks):\n",
    "    print('Track {}: {}'.format(ii, tracktrack.name))\n",
    "    for msgmsg in tracktrack:\n",
    "        print(str(msgmsg))\n",
    "        MessagesInput2.append(str(msgmsg))"
   ]
  },
  {
   "cell_type": "code",
   "execution_count": 34,
   "metadata": {},
   "outputs": [],
   "source": [
    "pygame.init()\n",
    "\n",
    "pygame.mixer.music.load(\"output.mid\")\n",
    "pygame.mixer.music.play()"
   ]
  }
 ],
 "metadata": {
  "kernelspec": {
   "display_name": "Python 3",
   "language": "python",
   "name": "python3"
  },
  "language_info": {
   "codemirror_mode": {
    "name": "ipython",
    "version": 3
   },
   "file_extension": ".py",
   "mimetype": "text/x-python",
   "name": "python",
   "nbconvert_exporter": "python",
   "pygments_lexer": "ipython3",
   "version": "3.7.4"
  }
 },
 "nbformat": 4,
 "nbformat_minor": 2
}
